<svg width="25" height="25" viewBox="0 0 25 25" fill="none" xmlns="http://www.w3.org/2000/svg">
<g clip-path="url(#clip0_13_444)">
<path d="M8.01782 5.5H8.01792H22.5C23.6047 5.5 24.5 6.39528 24.5 7.5V17.5C24.5 18.6047 23.6047 19.5 22.5 19.5H8.01753C7.48738 19.5 6.97858 19.2891 6.6035 18.914L0.71952 13.03L0.719379 13.0299C0.42663 12.7374 0.426423 12.2627 0.719508 11.9696C0.719512 11.9696 0.719516 11.9696 0.71952 11.9696L6.60349 6.08599L6.60361 6.08587C6.78928 5.90009 7.00975 5.75272 7.25241 5.65219C7.49507 5.55166 7.75516 5.49995 8.01782 5.5ZM19.5453 16.1618C19.9847 15.7224 19.9847 15.0101 19.5453 14.5707L17.4746 12.5L19.5453 10.4293C19.9847 9.98993 19.9847 9.27765 19.5453 8.83824L18.6617 7.95465C18.2223 7.51525 17.51 7.51525 17.0706 7.95465L15 10.0253L12.9293 7.95465C12.4899 7.51525 11.7776 7.51525 11.3382 7.95465L10.4546 8.83824C10.0152 9.27765 10.0152 9.98993 10.4546 10.4293L12.5253 12.5L10.4546 14.5707C10.0152 15.0101 10.0152 15.7224 10.4546 16.1618L11.3382 17.0454C11.7776 17.4848 12.4899 17.4848 12.9293 17.0454L15 14.9747L17.0706 17.0454C17.51 17.4848 18.2223 17.4848 18.6617 17.0454L19.5453 16.1618Z" fill="white" stroke="white"/>
</g>
<defs>
<clipPath id="clip0_13_444">
<rect width="25" height="25" fill="white"/>
</clipPath>
</defs>
</svg>
